<?xml version="1.0" standalone="no"?>
<!DOCTYPE svg PUBLIC "-//W3C//DTD SVG 20010904//EN"
 "http://www.w3.org/TR/2001/REC-SVG-20010904/DTD/svg10.dtd">
<svg version="1.0" xmlns="http://www.w3.org/2000/svg"
 width="1022.000000pt" height="1022.000000pt" viewBox="0 0 1022.000000 1022.000000"
 preserveAspectRatio="xMidYMid meet">
<metadata>
Created by potrace 1.11, written by Peter Selinger 2001-2013
</metadata>
<g transform="translate(0.000000,1022.000000) scale(0.100000,-0.100000)"
fill="#000000" stroke="none">
<path d="M7960 6143 c-7 -16 -57 -131 -112 -258 -55 -126 -108 -248 -118 -270
-10 -22 -32 -74 -50 -115 -18 -41 -40 -93 -50 -115 -55 -126 -311 -717 -319
-737 l-9 -25 89 2 c48 0 90 3 93 6 2 2 41 93 87 202 l82 197 396 -2 395 -3 44
-105 c24 -58 51 -123 61 -145 10 -22 28 -65 40 -95 l23 -55 89 0 c49 -1 89 2
89 6 0 6 -311 729 -355 824 -7 17 -75 171 -150 344 -75 173 -143 327 -151 343
-14 27 -18 28 -88 28 -70 0 -73 -1 -86 -27z m195 -418 c54 -132 126 -309 161
-394 35 -84 64 -154 64 -155 0 -1 -148 -1 -330 -2 -184 0 -330 4 -330 9 0 5
64 163 141 350 78 188 151 365 163 394 11 29 24 49 27 45 3 -4 50 -115 104
-247z"/>
<path d="M9008 6163 c-5 -22 -4 -1533 1 -1534 3 0 39 -2 78 -4 l73 -2 2 461
c2 253 2 602 0 774 l-2 312 -75 0 c-41 0 -76 -3 -77 -7z"/>
<path d="M6820 5711 l0 -344 -43 46 c-97 101 -247 142 -408 111 -225 -43 -376
-242 -362 -479 16 -263 216 -442 482 -431 115 5 201 39 276 110 l55 52 0 -72
0 -71 59 -1 c37 0 61 4 63 11 4 10 3 1392 -1 1408 0 3 -28 6 -61 5 l-60 -1 0
-344z m-187 -326 c142 -65 218 -234 181 -398 -53 -228 -337 -339 -531 -206
-110 76 -164 231 -132 380 47 217 270 321 482 224z"/>
<path d="M950 5300 l0 -666 65 -2 c36 -1 66 1 66 6 1 4 3 259 4 567 2 308 4
562 4 564 1 3 94 -130 396 -564 34 -49 138 -198 230 -330 l167 -240 84 -2 c72
-1 84 1 85 15 1 22 1 1248 0 1288 l-1 31 -62 -1 c-39 -1 -65 -6 -68 -13 -3 -7
-5 -260 -4 -563 0 -302 -1 -550 -2 -550 -1 0 -22 28 -46 63 -25 34 -201 285
-392 557 -192 272 -350 497 -353 500 -2 2 -42 5 -88 5 l-85 1 0 -666z"/>
<path d="M2700 5529 c-123 -20 -254 -110 -317 -219 -56 -94 -74 -254 -43 -370
53 -197 232 -327 451 -328 228 -1 411 144 457 362 23 111 -3 260 -63 356 -55
87 -187 179 -280 194 -65 11 -153 13 -205 5z m235 -140 c90 -42 143 -107 171
-211 54 -199 -52 -400 -236 -446 -53 -13 -164 -4 -214 18 -64 27 -127 89 -161
157 -27 53 -30 67 -30 163 0 92 3 112 26 160 49 106 134 172 239 186 25 3 46
7 47 8 10 8 117 -16 158 -35z"/>
<path d="M3809 5521 c-37 -9 -84 -30 -105 -46 -43 -32 -83 -74 -86 -90 -1 -5
-4 21 -7 59 l-6 69 -58 2 c-46 1 -60 -2 -67 -15 -5 -10 -6 -20 -3 -24 4 -3 8
-192 9 -419 1 -226 2 -415 3 -418 1 -4 28 -7 61 -7 l60 0 0 264 c0 145 0 265
0 267 0 1 7 27 16 57 43 144 150 219 284 198 86 -14 139 -64 155 -148 3 -19 8
-44 10 -55 2 -11 4 -146 4 -301 l1 -281 62 1 63 1 1 280 c1 237 4 288 18 330
42 119 118 177 232 176 82 0 143 -26 171 -72 40 -66 46 -111 47 -419 l1 -295
63 -1 63 -1 -3 336 -3 336 -31 66 c-57 119 -145 165 -310 162 -99 -2 -199 -55
-251 -135 l-27 -40 -14 29 c-60 117 -203 172 -353 134z"/>
<path d="M5315 5523 c-78 -14 -179 -60 -212 -95 l-21 -23 35 -41 36 -42 51 33
c81 51 145 68 241 63 71 -4 90 -9 124 -32 50 -35 75 -86 76 -156 l0 -55 -45
-1 c-155 -4 -210 -9 -266 -20 -128 -27 -202 -69 -255 -147 -30 -44 -32 -53
-33 -130 0 -73 3 -89 27 -130 63 -107 209 -158 364 -127 75 15 132 49 182 107
l41 48 1 -42 c1 -24 3 -47 4 -53 1 -5 3 -18 4 -28 1 -15 11 -18 61 -20 l61 -2
-7 72 c-3 39 -7 191 -8 337 -2 263 -2 267 -27 321 -69 145 -221 203 -434 163z
m335 -517 c0 -173 -101 -278 -266 -279 -125 -1 -204 59 -204 156 0 92 79 154
218 173 26 3 48 7 50 9 2 1 48 3 103 4 l99 2 0 -65z"/>
</g>
</svg>
